<?xml version="1.0" encoding="UTF-8"?>
<svg version="1.1" xmlns="http://www.w3.org/2000/svg" width="534" height="888">
<path d="M0 0 C176.22 0 352.44 0 534 0 C534 293.04 534 586.08 534 888 C357.78 888 181.56 888 0 888 C0 594.96 0 301.92 0 0 Z " fill="#B58C41" transform="translate(0,0)"/>
<path d="M0 0 C176.22 0 352.44 0 534 0 C534 293.04 534 586.08 534 888 C357.78 888 181.56 888 0 888 C0 594.96 0 301.92 0 0 Z M10 13 C10 298.12 10 583.24 10 877 C54.88 877 99.76 877 146 877 C149.99404516 864.30855863 149.99404516 864.30855863 153.68798828 851.54077148 C154.02833855 850.31450294 154.02833855 850.31450294 154.37556458 849.0634613 C155.10957012 846.41666962 155.8399405 843.76889014 156.5703125 841.12109375 C157.09706569 839.21949827 157.62408002 837.31797511 158.15133667 835.41651917 C159.53353838 830.42964634 160.91278422 825.44196132 162.29119873 820.45404053 C164.46608034 812.58571654 166.64506868 804.71852825 168.82448578 796.8514595 C169.36329178 794.90649896 169.90199319 792.96150944 170.4405899 791.01649094 C174.68438125 775.6937961 178.97362022 760.38435626 183.30447388 745.08604431 C183.72236582 743.60953176 184.14024331 742.13301512 184.55810547 740.65649414 C184.75891031 739.94734202 184.95971516 739.23818991 185.166605 738.50754833 C186.89918271 732.3791542 188.60246256 726.24273464 190.29043388 720.10190678 C191.49205515 715.75054457 192.77076949 711.43203585 194.125 707.125 C195.3839541 703.10641852 196.50632959 699.09221255 197.5 695 C198.45946696 691.05495767 199.52990648 687.18474595 200.75 683.3125 C203.7584089 673.71533245 206.38347362 664.00762345 209.07666016 654.31835938 C210.54434994 649.04367944 212.02261849 643.77197175 213.5 638.5 C214.08334513 636.41536788 214.66667844 634.33073246 215.25 632.24609375 C216.41312052 628.09144281 217.5801017 623.9379035 218.75 619.78515625 C221.72710949 609.20578504 224.65674538 598.61619232 227.5 588 C230.6168674 576.36218762 233.84425273 564.75791051 237.11181641 553.16162109 C238.03185726 549.88659936 238.94457969 546.60960953 239.85546875 543.33203125 C240.16226563 542.22996338 240.4690625 541.12789551 240.78515625 539.99243164 C241.36324837 537.91514771 241.94017895 535.83753998 242.515625 533.75952148 C244.55123437 526.45849379 246.76870897 519.25169583 249 512 C261.54 511.01 274.08 510.02 287 509 C287.33 511.31 287.66 513.62 288 516 C288.39139272 517.74830564 288.81320879 519.49016363 289.26953125 521.22265625 C289.6399353 522.63768433 289.6399353 522.63768433 290.01782227 524.08129883 C290.28006592 525.06509521 290.54230957 526.0488916 290.8125 527.0625 C291.21843384 528.60103638 291.21843384 528.60103638 291.63256836 530.1706543 C293.3549094 536.66697009 295.14089047 543.13974588 297.015625 549.59375 C298.14234523 553.4925597 299.23019464 557.40117709 300.3125 561.3125 C302.32180315 568.56574727 304.34463402 575.81512014 306.375 583.0625 C306.81718872 584.6410376 306.81718872 584.6410376 307.26831055 586.25146484 C308.17872656 589.50101781 309.0893296 592.75051831 310 596 C316.84501157 620.42457755 316.84501157 620.42457755 320.08642578 632.11499023 C321.88018912 638.57967833 323.68963684 645.03994342 325.5 651.5 C327.50778277 658.66452399 329.51195807 665.82997201 331.5 673 C334.64472154 684.3394653 337.82451018 695.66912109 341 707 C347.78896866 731.22460351 347.78896866 731.22460351 351.09082031 743.13037109 C354.04048624 753.75917538 357.02337645 764.37872173 360 775 C360.91053167 778.24898669 361.82099663 781.49799196 362.73120117 784.74707031 C363.32489553 786.86627214 363.91880669 788.98541323 364.51293945 791.10449219 C365.79757226 795.68962085 367.07880265 800.27550869 368.33984375 804.8671875 C370.71414163 813.50447798 373.22388587 822.08749889 375.83349609 830.65673828 C377.63332354 836.62618543 379.20632747 842.62526696 380.66992188 848.68481445 C381.67713765 852.82151762 382.86242602 856.8270443 384.27734375 860.83984375 C385.46402873 864.38706965 386.39385967 868.00263167 387.3515625 871.6171875 C387.84430339 873.42786185 388.40659161 875.21977483 389 877 C434.21 877 479.42 877 526 877 C526 591.88 526 306.76 526 13 C480.79 13 435.58 13 389 13 C386.49925152 19.63322534 386.49925152 19.63322534 384.421875 26.3359375 C384.15173584 27.30442627 383.88159668 28.27291504 383.60327148 29.27075195 C383.32169189 30.29515381 383.0401123 31.31955566 382.75 32.375 C382.44843994 33.46063232 382.14687988 34.54626465 381.83618164 35.66479492 C379.35333168 44.63382487 376.95535736 53.62515738 374.55566406 62.61669922 C372.5960814 69.91192044 370.48802342 77.14729303 368.27368164 84.36865234 C365.80790303 92.47974462 363.64374669 100.66744808 361.46484375 108.859375 C359.8047883 115.07904943 358.03894454 121.23664855 356.0859375 127.37109375 C354.48038074 132.73642551 353.06444381 138.15059273 351.625 143.5625 C349.55752084 151.33214043 347.42777592 159.06568255 345.0625 166.75 C342.30296726 175.73760595 339.88192848 184.80775821 337.48278809 193.89697266 C334.67928471 204.51559887 331.72941814 215.08150789 328.67919922 225.63134766 C327.36187675 230.22540323 326.09222457 234.8327588 324.82348633 239.44042969 C323.62398883 243.78694435 322.39389377 248.12396724 321.15087891 252.45825195 C319.17327747 259.3750378 317.23555304 266.30225627 315.3125 273.234375 C314.79207499 275.10677546 314.27164722 276.97917515 313.75109959 278.85154152 C313.20592702 280.81255492 312.66091234 282.77361215 312.11593628 284.73468018 C311.74396313 286.07312168 311.37198432 287.4115616 311 288.75 C310.81391804 289.4195446 310.62783607 290.0890892 310.43611526 290.77892303 C306.40557987 305.27904403 302.37140133 319.77755465 298.21484375 334.2421875 C297.93057526 335.23182495 297.64630676 336.2214624 297.35342407 337.24108887 C296.04367449 341.79516038 294.72783993 346.34737974 293.40429688 350.89746094 C292.94526635 352.48631479 292.48627907 354.07518114 292.02734375 355.6640625 C291.81883286 356.37360077 291.61032196 357.08313904 291.39549255 357.81417847 C290.57790695 360.6537188 290 363.02671013 290 366 C268.22 365.505 268.22 365.505 246 365 C245.13375 361.6175 244.2675 358.235 243.375 354.75 C241.41668328 347.18116756 239.35648045 339.66148616 237.0625 332.1875 C233.98695654 322.16343095 231.28802978 312.04800091 228.5859375 301.91796875 C227.14512426 296.52038311 225.63997786 291.14733807 224.0859375 285.78125 C222.57141847 280.50767296 221.10040686 275.22213191 219.625 269.9375 C217.4402034 262.11813622 215.23826984 254.30422622 213 246.5 C209.30609479 233.61505757 205.70940296 220.70303087 202.10449219 207.79296875 C198.85815356 196.1700121 195.59616844 184.55232671 192.26928711 172.95214844 C190.01536218 165.0816782 187.81169726 157.19743036 185.60986328 149.31225586 C183.50776705 141.7922361 181.37799039 134.28059721 179.21679688 126.77734375 C177.76497612 121.72380838 176.34847601 116.66097951 174.9453125 111.59375 C171.12253459 97.79806717 167.23297537 84.0210034 163.35253906 70.24145508 C162.22566526 66.23967884 161.10000653 62.23756188 159.97462463 58.23536587 C159.09153868 55.09570038 158.20754984 51.95628959 157.32333374 48.81694221 C156.90847119 47.3434372 156.49392596 45.8698428 156.07974243 44.39614677 C155.88431854 43.70092478 155.68889465 43.00570278 155.48754883 42.28941345 C155.31878738 41.68865462 155.15002594 41.08789579 154.97615051 40.46893215 C152.38248239 31.29041645 149.69199389 22.15277922 147 13 C101.79 13 56.58 13 10 13 Z " fill="#1C1914" transform="translate(0,0)"/>
</svg>
